<svg width="180" height="180" viewBox="0 0 180 180" fill="none" xmlns="http://www.w3.org/2000/svg">
  <rect width="180" height="180" fill="black"/>
  <path d="M90 22.5C90 22.5 45 45 45 90C45 112.5 56.25 135 90 157.5C123.75 135 135 112.5 135 90C135 45 90 22.5 90 22.5Z" fill="white"/>
  <path d="M90 33.75C90 33.75 56.25 50.625 56.25 90C56.25 106.875 64.6875 123.75 90 143.4375C115.3125 123.75 123.75 106.875 123.75 90C123.75 50.625 90 33.75 90 33.75Z" fill="black"/>
  <path d="M90 45C90 45 67.5 56.25 67.5 90C67.5 101.25 73.125 115.3125 90 129.375C106.875 115.3125 112.5 101.25 112.5 90C112.5 56.25 90 45 90 45Z" fill="white"/>
</svg>
